<mxfile host="app.diagrams.net" agent="Mozilla/5.0 (Windows NT 10.0; Win64; x64) AppleWebKit/537.36 (KHTML, like Gecko) Chrome/131.0.0.0 Safari/537.36 Edg/131.0.0.0" version="25.0.3">
  <diagram name="第 1 页" id="Ta4DXwczmj9H5x3wEeXq">
    <mxGraphModel dx="1121" dy="521" grid="1" gridSize="10" guides="1" tooltips="1" connect="1" arrows="1" fold="1" page="1" pageScale="1" pageWidth="827" pageHeight="1169" math="0" shadow="0">
      <root>
        <mxCell id="0" />
        <mxCell id="1" parent="0" />
        <mxCell id="1vybkrZvWcCKbERgc6V0-3" value="" style="edgeStyle=orthogonalEdgeStyle;rounded=0;orthogonalLoop=1;jettySize=auto;html=1;" edge="1" parent="1" source="1vybkrZvWcCKbERgc6V0-1" target="1vybkrZvWcCKbERgc6V0-2">
          <mxGeometry relative="1" as="geometry" />
        </mxCell>
        <mxCell id="1vybkrZvWcCKbERgc6V0-1" value="教导杯壁三点" style="rounded=0;whiteSpace=wrap;html=1;" vertex="1" parent="1">
          <mxGeometry x="80" y="190" width="120" height="60" as="geometry" />
        </mxCell>
        <mxCell id="1vybkrZvWcCKbERgc6V0-5" value="" style="edgeStyle=orthogonalEdgeStyle;rounded=0;orthogonalLoop=1;jettySize=auto;html=1;" edge="1" parent="1" source="1vybkrZvWcCKbERgc6V0-2" target="1vybkrZvWcCKbERgc6V0-4">
          <mxGeometry relative="1" as="geometry" />
        </mxCell>
        <mxCell id="1vybkrZvWcCKbERgc6V0-2" value="拟合圆心" style="whiteSpace=wrap;html=1;rounded=0;" vertex="1" parent="1">
          <mxGeometry x="280" y="190" width="120" height="60" as="geometry" />
        </mxCell>
        <mxCell id="1vybkrZvWcCKbERgc6V0-7" value="" style="edgeStyle=orthogonalEdgeStyle;rounded=0;orthogonalLoop=1;jettySize=auto;html=1;" edge="1" parent="1" source="1vybkrZvWcCKbERgc6V0-4" target="1vybkrZvWcCKbERgc6V0-6">
          <mxGeometry relative="1" as="geometry" />
        </mxCell>
        <mxCell id="1vybkrZvWcCKbERgc6V0-4" value="运动到圆心位置(xy)" style="whiteSpace=wrap;html=1;rounded=0;" vertex="1" parent="1">
          <mxGeometry x="480" y="190" width="120" height="60" as="geometry" />
        </mxCell>
        <mxCell id="1vybkrZvWcCKbERgc6V0-6" value="教导Z轴、T轴" style="whiteSpace=wrap;html=1;rounded=0;" vertex="1" parent="1">
          <mxGeometry x="680" y="190" width="120" height="60" as="geometry" />
        </mxCell>
        <mxCell id="1vybkrZvWcCKbERgc6V0-11" value="" style="edgeStyle=orthogonalEdgeStyle;rounded=0;orthogonalLoop=1;jettySize=auto;html=1;" edge="1" parent="1" source="1vybkrZvWcCKbERgc6V0-8" target="1vybkrZvWcCKbERgc6V0-10">
          <mxGeometry relative="1" as="geometry" />
        </mxCell>
        <mxCell id="1vybkrZvWcCKbERgc6V0-8" value="通过旋转轴补偿下次刮胶位置" style="whiteSpace=wrap;html=1;rounded=0;" vertex="1" parent="1">
          <mxGeometry x="80" y="310" width="120" height="60" as="geometry" />
        </mxCell>
        <mxCell id="1vybkrZvWcCKbERgc6V0-13" value="" style="edgeStyle=orthogonalEdgeStyle;rounded=0;orthogonalLoop=1;jettySize=auto;html=1;" edge="1" parent="1" source="1vybkrZvWcCKbERgc6V0-10" target="1vybkrZvWcCKbERgc6V0-12">
          <mxGeometry relative="1" as="geometry" />
        </mxCell>
        <mxCell id="1vybkrZvWcCKbERgc6V0-10" value="超出90度后倾斜轴取反，旋转轴取补角后取反" style="whiteSpace=wrap;html=1;rounded=0;" vertex="1" parent="1">
          <mxGeometry x="280" y="310" width="120" height="60" as="geometry" />
        </mxCell>
        <mxCell id="1vybkrZvWcCKbERgc6V0-12" value="当补偿的角度超出360度时则报警刮胶杯用完" style="whiteSpace=wrap;html=1;rounded=0;" vertex="1" parent="1">
          <mxGeometry x="480" y="310" width="120" height="60" as="geometry" />
        </mxCell>
      </root>
    </mxGraphModel>
  </diagram>
</mxfile>
